<svg version="1.1" viewBox="0 0 48 48" fill="none" stroke="none" stroke-linecap="square" stroke-miterlimit="10" xmlns:xlink="http://www.w3.org/1999/xlink" xmlns="http://www.w3.org/2000/svg" width="48" height="48"><clipPath id="p.0"><path d="m0 0l48.0 0l0 48.0l-48.0 0l0 -48.0z" clip-rule="nonzero"/></clipPath><g clip-path="url(#p.0)"><path fill="#000000" fill-opacity="0.0" d="m0 0l48.0 0l0 48.0l-48.0 0z" fill-rule="evenodd"/><path fill="#000000" fill-opacity="0.0" d="m9.6 0l28.787401 0l0 48.0l-28.787401 0z" fill-rule="evenodd"/><path fill="#ffffff" d="m13.6625 12.799999l-1.21875 0l0 -8.453125l-2.71875 0l0 -1.0625l6.65625 0l0 1.0625l-2.71875 0l0 8.453125zm8.449127 0l0 -4.59375q0 -0.859375 -0.34375 -1.28125q-0.34375 -0.421875 -1.0625 -0.421875q-0.53125 0 -0.890625 0.171875q-0.359375 0.171875 -0.578125 0.5q-0.21875 0.328125 -0.3125 0.8125q-0.09375 0.484375 -0.09375 1.109375l0 3.703125l-1.1875 0l0 -10.125l1.1875 0l0 3.0l-0.046875 0.9375l0.0625 0q0.171875 -0.28125 0.390625 -0.484375q0.21875 -0.203125 0.484375 -0.328125q0.265625 -0.140625 0.5625 -0.203125q0.3125 -0.078125 0.625 -0.078125q1.1875 0 1.78125 0.625q0.609375 0.625 0.609375 1.984375l0 4.671875l-1.1875 0zm6.2078705 0.125q-0.71875 0 -1.3125 -0.234375q-0.578125 -0.234375 -1.015625 -0.703125q-0.421875 -0.46875 -0.65625 -1.140625q-0.234375 -0.6875 -0.234375 -1.5625q0 -0.890625 0.21875 -1.578125q0.21875 -0.703125 0.609375 -1.1875q0.390625 -0.484375 0.921875 -0.734375q0.546875 -0.265625 1.203125 -0.265625q0.640625 0 1.15625 0.234375q0.515625 0.234375 0.875 0.65625q0.359375 0.421875 0.546875 1.015625q0.203125 0.578125 0.203125 1.296875l0 0.734375l-4.515625 0q0.03125 1.25 0.53125 1.84375q0.5 0.59375 1.484375 0.59375q0.328125 0 0.609375 -0.03125q0.296875 -0.03125 0.546875 -0.09375q0.265625 -0.0625 0.515625 -0.15625q0.25 -0.09375 0.5 -0.21875l0 1.0625q-0.25 0.125 -0.515625 0.21875q-0.25 0.09375 -0.515625 0.140625q-0.25 0.0625 -0.546875 0.078125q-0.28125 0.03125 -0.609375 0.03125zm-0.296875 -6.421875q-0.734375 0 -1.171875 0.515625q-0.421875 0.5 -0.5 1.46875l3.203125 0q0 -0.4375 -0.09375 -0.796875q-0.078125 -0.375 -0.265625 -0.625q-0.1875 -0.265625 -0.484375 -0.40625q-0.28125 -0.15625 -0.6875 -0.15625z" fill-rule="nonzero"/><path fill="#ffffff" d="m17.896875 23.95625q0 1.203125 -0.3125 2.109375q-0.3125 0.90625 -0.90625 1.515625q-0.578125 0.609375 -1.453125 0.921875q-0.859375 0.296875 -1.953125 0.296875l-2.375 0l0 -9.515625l2.640625 0q1.0 0 1.796875 0.296875q0.8125 0.296875 1.375 0.890625q0.578125 0.59375 0.875 1.46875q0.3125 0.859375 0.3125 2.015625zm-1.28125 0.03125q0 -0.953125 -0.21875 -1.640625q-0.203125 -0.6875 -0.625 -1.140625q-0.40625 -0.453125 -1.0 -0.671875q-0.59375 -0.21875 -1.359375 -0.21875l-1.3125 0l0 7.4375l1.0625 0q1.71875 0 2.578125 -0.9375q0.875 -0.953125 0.875 -2.828125zm7.2581635 4.8125l-0.234375 -0.984375l-0.046875 0q-0.21875 0.28125 -0.4375 0.5q-0.21875 0.21875 -0.46875 0.359375q-0.25 0.125 -0.5625 0.1875q-0.3125 0.0625 -0.71875 0.0625q-0.453125 0 -0.828125 -0.125q-0.375 -0.125 -0.65625 -0.390625q-0.28125 -0.265625 -0.4375 -0.65625q-0.15625 -0.40625 -0.15625 -0.953125q0 -1.0625 0.75 -1.625q0.75 -0.578125 2.296875 -0.640625l1.1875 -0.046875l0 -0.4375q0 -0.4375 -0.09375 -0.734375q-0.09375 -0.296875 -0.28125 -0.46875q-0.171875 -0.1875 -0.4375 -0.265625q-0.25 -0.078125 -0.59375 -0.078125q-0.546875 0 -1.015625 0.15625q-0.453125 0.15625 -0.890625 0.375l-0.40625 -0.890625q0.46875 -0.25 1.0625 -0.4375q0.59375 -0.1875 1.25 -0.1875q0.65625 0 1.140625 0.140625q0.484375 0.125 0.796875 0.421875q0.328125 0.28125 0.484375 0.734375q0.15625 0.453125 0.15625 1.09375l0 4.890625l-0.859375 0zm-2.171875 -0.828125q0.40625 0 0.734375 -0.125q0.34375 -0.125 0.59375 -0.375q0.25 -0.25 0.375 -0.625q0.140625 -0.390625 0.140625 -0.890625l0 -0.65625l-0.921875 0.046875q-0.59375 0.03125 -0.984375 0.140625q-0.390625 0.09375 -0.640625 0.28125q-0.234375 0.1875 -0.34375 0.453125q-0.09375 0.265625 -0.09375 0.59375q0 0.59375 0.3125 0.875q0.3125 0.28125 0.828125 0.28125zm8.308441 -6.453125q0.1875 0 0.421875 0.015625q0.234375 0.015625 0.40625 0.0625l-0.15625 1.078125q-0.171875 -0.03125 -0.375 -0.046875q-0.1875 -0.03125 -0.359375 -0.03125q-0.40625 0 -0.75 0.171875q-0.328125 0.171875 -0.578125 0.484375q-0.25 0.296875 -0.390625 0.734375q-0.125 0.4375 -0.125 0.953125l0 3.859375l-1.1875 0l0 -7.140625l0.96875 0l0.140625 1.296875l0.0625 0q0.15625 -0.28125 0.34375 -0.53125q0.1875 -0.265625 0.40625 -0.453125q0.234375 -0.203125 0.515625 -0.328125q0.296875 -0.125 0.65625 -0.125zm3.3169384 3.59375l0.890625 -1.109375l1.90625 -2.34375l1.375 0l-2.609375 3.09375l2.78125 4.046875l-1.359375 0l-2.1875 -3.28125l-0.71875 0.53125l0 2.75l-1.171875 0l0 -10.125l1.171875 0l0 4.640625l-0.09375 1.796875l0.015625 0z" fill-rule="nonzero"/><path fill="#ffffff" d="m15.9125 42.253124q0 0.640625 -0.234375 1.140625q-0.21875 0.484375 -0.640625 0.828125q-0.40625 0.34375 -1.015625 0.53125q-0.59375 0.171875 -1.34375 0.171875q-0.71875 0 -1.359375 -0.109375q-0.625 -0.109375 -1.046875 -0.328125l0 -1.171875q0.21875 0.109375 0.5 0.21875q0.296875 0.09375 0.609375 0.171875q0.3125 0.078125 0.640625 0.125q0.328125 0.046875 0.65625 0.046875q1.046875 0 1.53125 -0.390625q0.5 -0.390625 0.5 -1.109375q0 -0.359375 -0.09375 -0.609375q-0.09375 -0.265625 -0.328125 -0.484375q-0.234375 -0.21875 -0.640625 -0.421875q-0.390625 -0.203125 -1.0 -0.453125q-0.578125 -0.21875 -1.0 -0.484375q-0.421875 -0.28125 -0.703125 -0.609375q-0.28125 -0.34375 -0.421875 -0.765625q-0.125 -0.4375 -0.125 -0.984375q0 -0.578125 0.203125 -1.015625q0.21875 -0.453125 0.59375 -0.765625q0.375 -0.3125 0.890625 -0.46875q0.53125 -0.171875 1.171875 -0.171875q0.765625 0 1.375 0.15625q0.625 0.140625 1.109375 0.375l-0.4375 1.015625q-0.421875 -0.1875 -0.96875 -0.328125q-0.53125 -0.140625 -1.09375 -0.140625q-0.796875 0 -1.234375 0.375q-0.4375 0.359375 -0.4375 0.984375q0 0.359375 0.09375 0.640625q0.109375 0.265625 0.328125 0.484375q0.234375 0.21875 0.609375 0.40625q0.375 0.1875 0.921875 0.40625q0.59375 0.234375 1.03125 0.484375q0.453125 0.25 0.75 0.5625q0.296875 0.3125 0.453125 0.71875q0.15625 0.40625 0.15625 0.96875zm2.9178772 2.546875l-1.1875 0l0 -7.140625l1.1875 0l0 7.140625zm-1.265625 -9.078125q0 -0.390625 0.1875 -0.5625q0.203125 -0.1875 0.5 -0.1875q0.140625 0 0.265625 0.046875q0.125 0.046875 0.21875 0.140625q0.09375 0.09375 0.140625 0.234375q0.0625 0.125 0.0625 0.328125q0 0.375 -0.203125 0.5625q-0.203125 0.1875 -0.484375 0.1875q-0.296875 0 -0.5 -0.171875q-0.1875 -0.1875 -0.1875 -0.578125zm7.949173 8.125l-0.046875 0q-0.15625 0.21875 -0.34375 0.421875q-0.1875 0.1875 -0.4375 0.34375q-0.25 0.15625 -0.5625 0.234375q-0.3125 0.078125 -0.703125 0.078125q-0.609375 0 -1.109375 -0.234375q-0.5 -0.234375 -0.859375 -0.6875q-0.359375 -0.46875 -0.5625 -1.15625q-0.1875 -0.703125 -0.1875 -1.609375q0 -0.921875 0.1875 -1.609375q0.203125 -0.6875 0.5625 -1.15625q0.359375 -0.46875 0.859375 -0.703125q0.5 -0.25 1.109375 -0.25q0.375 0 0.6875 0.09375q0.3125 0.078125 0.5625 0.234375q0.25 0.140625 0.4375 0.328125q0.203125 0.1875 0.359375 0.390625l0.078125 0q-0.03125 -0.21875 -0.046875 -0.421875q-0.015625 -0.171875 -0.03125 -0.34375q0 -0.1875 0 -0.28125l0 -2.84375l1.171875 0l0 10.125l-0.953125 0l-0.171875 -0.953125zm-1.875 0.09375q0.5 0 0.84375 -0.140625q0.34375 -0.15625 0.546875 -0.453125q0.21875 -0.3125 0.3125 -0.765625q0.109375 -0.46875 0.125 -1.078125l0 -0.265625q0 -0.65625 -0.09375 -1.15625q-0.09375 -0.515625 -0.3125 -0.859375q-0.203125 -0.359375 -0.5625 -0.53125q-0.34375 -0.1875 -0.875 -0.1875q-0.875 0 -1.296875 0.71875q-0.40625 0.703125 -0.40625 2.03125q0 1.359375 0.40625 2.03125q0.421875 0.65625 1.3125 0.65625zm8.090698 0.984375q-0.71875 0 -1.3125 -0.234375q-0.578125 -0.234375 -1.015625 -0.703125q-0.421875 -0.46875 -0.65625 -1.140625q-0.234375 -0.6875 -0.234375 -1.5625q0 -0.890625 0.21875 -1.578125q0.21875 -0.703125 0.609375 -1.1875q0.390625 -0.484375 0.921875 -0.734375q0.546875 -0.265625 1.203125 -0.265625q0.6406231 0 1.1562481 0.234375q0.515625 0.234375 0.875 0.65625q0.359375 0.421875 0.546875 1.015625q0.203125 0.578125 0.203125 1.296875l0 0.734375l-4.515623 0q0.03125 1.25 0.53125 1.84375q0.5 0.59375 1.484375 0.59375q0.3281231 0 0.6093731 -0.03125q0.296875 -0.03125 0.546875 -0.09375q0.265625 -0.0625 0.515625 -0.15625q0.25 -0.09375 0.5 -0.21875l0 1.0625q-0.25 0.125 -0.515625 0.21875q-0.25 0.09375 -0.515625 0.140625q-0.25 0.0625 -0.546875 0.078125q-0.28125 0.03125 -0.6093731 0.03125zm-0.296875 -6.421875q-0.734375 0 -1.171875 0.515625q-0.421875 0.5 -0.5 1.46875l3.203123 0q0 -0.4375 -0.09375 -0.796875q-0.078125 -0.375 -0.265625 -0.625q-0.1875 -0.265625 -0.484375 -0.40625q-0.2812481 -0.15625 -0.6874981 -0.15625z" fill-rule="nonzero"/></g></svg>
